<mxfile host="app.diagrams.net" modified="2024-06-20T04:58:54.062Z" agent="Mozilla/5.0 (Windows NT 10.0; Win64; x64) AppleWebKit/537.36 (KHTML, like Gecko) Chrome/126.0.0.0 Safari/537.36" etag="YRlExFLC15pwu46tDJ0z" version="24.5.5" type="device">
  <diagram name="Page-1" id="55a83fd1-7818-8e21-69c5-c3457e3827bb">
    <mxGraphModel dx="1434" dy="1596" grid="1" gridSize="10" guides="1" tooltips="1" connect="1" arrows="1" fold="1" page="1" pageScale="1" pageWidth="1100" pageHeight="850" background="none" math="0" shadow="0">
      <root>
        <mxCell id="0" />
        <mxCell id="1" parent="0" />
        <mxCell id="Z3br4pxKwGcm6RJZxw1D-19" style="edgeStyle=orthogonalEdgeStyle;rounded=0;orthogonalLoop=1;jettySize=auto;html=1;" edge="1" parent="1" source="Z3br4pxKwGcm6RJZxw1D-6" target="Z3br4pxKwGcm6RJZxw1D-17">
          <mxGeometry relative="1" as="geometry" />
        </mxCell>
        <mxCell id="Z3br4pxKwGcm6RJZxw1D-6" value="ISP Router:&lt;div&gt;Static IP: 41.193.78.209&lt;/div&gt;&lt;div&gt;Gateway: 192.168.110.1&lt;/div&gt;" style="image;html=1;image=img/lib/clip_art/networking/Wireless_Router_128x128.png" vertex="1" parent="1">
          <mxGeometry x="200" y="80" width="80" height="80" as="geometry" />
        </mxCell>
        <mxCell id="Z3br4pxKwGcm6RJZxw1D-22" style="edgeStyle=orthogonalEdgeStyle;rounded=0;orthogonalLoop=1;jettySize=auto;html=1;" edge="1" parent="1" source="Z3br4pxKwGcm6RJZxw1D-7" target="Z3br4pxKwGcm6RJZxw1D-17">
          <mxGeometry relative="1" as="geometry" />
        </mxCell>
        <mxCell id="Z3br4pxKwGcm6RJZxw1D-34" style="edgeStyle=orthogonalEdgeStyle;rounded=0;orthogonalLoop=1;jettySize=auto;html=1;" edge="1" parent="1" source="Z3br4pxKwGcm6RJZxw1D-7" target="Z3br4pxKwGcm6RJZxw1D-24">
          <mxGeometry relative="1" as="geometry" />
        </mxCell>
        <mxCell id="Z3br4pxKwGcm6RJZxw1D-7" value="MikroTik Router:&lt;div&gt;Static IP: 192.168.110.10&lt;/div&gt;&lt;div&gt;Gateway: 192.168.88.1&lt;/div&gt;" style="image;html=1;image=img/lib/clip_art/networking/Router_128x128.png" vertex="1" parent="1">
          <mxGeometry x="440" y="80" width="80" height="80" as="geometry" />
        </mxCell>
        <mxCell id="Z3br4pxKwGcm6RJZxw1D-20" style="edgeStyle=orthogonalEdgeStyle;rounded=0;orthogonalLoop=1;jettySize=auto;html=1;" edge="1" parent="1" source="Z3br4pxKwGcm6RJZxw1D-17" target="Z3br4pxKwGcm6RJZxw1D-6">
          <mxGeometry relative="1" as="geometry" />
        </mxCell>
        <mxCell id="Z3br4pxKwGcm6RJZxw1D-21" style="edgeStyle=orthogonalEdgeStyle;rounded=0;orthogonalLoop=1;jettySize=auto;html=1;" edge="1" parent="1" source="Z3br4pxKwGcm6RJZxw1D-17" target="Z3br4pxKwGcm6RJZxw1D-7">
          <mxGeometry relative="1" as="geometry" />
        </mxCell>
        <mxCell id="Z3br4pxKwGcm6RJZxw1D-17" value="Switch" style="image;html=1;image=img/lib/clip_art/networking/Switch_128x128.png" vertex="1" parent="1">
          <mxGeometry x="320" y="80" width="80" height="80" as="geometry" />
        </mxCell>
        <mxCell id="Z3br4pxKwGcm6RJZxw1D-35" style="edgeStyle=orthogonalEdgeStyle;rounded=0;orthogonalLoop=1;jettySize=auto;html=1;" edge="1" parent="1" source="Z3br4pxKwGcm6RJZxw1D-24" target="Z3br4pxKwGcm6RJZxw1D-7">
          <mxGeometry relative="1" as="geometry" />
        </mxCell>
        <mxCell id="Z3br4pxKwGcm6RJZxw1D-24" value="" style="rounded=0;whiteSpace=wrap;html=1;" vertex="1" parent="1">
          <mxGeometry x="560" y="-20" width="240" height="280" as="geometry" />
        </mxCell>
        <mxCell id="Z3br4pxKwGcm6RJZxw1D-25" value="Workstation:&amp;nbsp;&lt;div&gt;192.168.88.2&lt;/div&gt;" style="rounded=0;whiteSpace=wrap;html=1;" vertex="1" parent="1">
          <mxGeometry x="560" y="-20" width="240" height="40" as="geometry" />
        </mxCell>
        <mxCell id="Z3br4pxKwGcm6RJZxw1D-29" style="edgeStyle=orthogonalEdgeStyle;rounded=0;orthogonalLoop=1;jettySize=auto;html=1;" edge="1" parent="1" source="Z3br4pxKwGcm6RJZxw1D-26" target="Z3br4pxKwGcm6RJZxw1D-27">
          <mxGeometry relative="1" as="geometry" />
        </mxCell>
        <mxCell id="Z3br4pxKwGcm6RJZxw1D-36" style="edgeStyle=orthogonalEdgeStyle;rounded=0;orthogonalLoop=1;jettySize=auto;html=1;" edge="1" parent="1" source="Z3br4pxKwGcm6RJZxw1D-26" target="Z3br4pxKwGcm6RJZxw1D-32">
          <mxGeometry relative="1" as="geometry">
            <Array as="points">
              <mxPoint x="760" y="60" />
            </Array>
          </mxGeometry>
        </mxCell>
        <mxCell id="Z3br4pxKwGcm6RJZxw1D-26" value="PHP Webserver:&lt;div&gt;192.168.88.2:80&lt;/div&gt;" style="image;html=1;image=img/lib/clip_art/computers/Server_128x128.png" vertex="1" parent="1">
          <mxGeometry x="700" y="140" width="80" height="80" as="geometry" />
        </mxCell>
        <mxCell id="Z3br4pxKwGcm6RJZxw1D-28" style="edgeStyle=orthogonalEdgeStyle;rounded=0;orthogonalLoop=1;jettySize=auto;html=1;" edge="1" parent="1" source="Z3br4pxKwGcm6RJZxw1D-27" target="Z3br4pxKwGcm6RJZxw1D-26">
          <mxGeometry relative="1" as="geometry" />
        </mxCell>
        <mxCell id="Z3br4pxKwGcm6RJZxw1D-27" value="MySQL Database:&lt;div&gt;127.0.0.1:3306&lt;/div&gt;" style="image;html=1;image=img/lib/clip_art/computers/Database_128x128.png" vertex="1" parent="1">
          <mxGeometry x="580" y="140" width="80" height="80" as="geometry" />
        </mxCell>
        <mxCell id="Z3br4pxKwGcm6RJZxw1D-33" style="edgeStyle=orthogonalEdgeStyle;rounded=0;orthogonalLoop=1;jettySize=auto;html=1;" edge="1" parent="1" source="Z3br4pxKwGcm6RJZxw1D-32" target="Z3br4pxKwGcm6RJZxw1D-26">
          <mxGeometry relative="1" as="geometry">
            <Array as="points">
              <mxPoint x="760" y="60" />
            </Array>
          </mxGeometry>
        </mxCell>
        <mxCell id="Z3br4pxKwGcm6RJZxw1D-32" value="Nginx FastCGI Passthrough:&lt;div&gt;127.0.0.1:9000&lt;/div&gt;" style="image;html=1;image=img/lib/clip_art/computers/Server_128x128.png" vertex="1" parent="1">
          <mxGeometry x="640" y="20" width="80" height="80" as="geometry" />
        </mxCell>
      </root>
    </mxGraphModel>
  </diagram>
</mxfile>
